<?xml version="1.0" encoding="UTF-8" standalone="no"?><!DOCTYPE svg PUBLIC "-//W3C//DTD SVG 1.1//EN" "http://www.w3.org/Graphics/SVG/1.1/DTD/svg11.dtd"><svg width="100%" height="100%" viewBox="0 0 295 235" version="1.1" xmlns="http://www.w3.org/2000/svg" xmlns:xlink="http://www.w3.org/1999/xlink" xml:space="preserve" xmlns:serif="http://www.serif.com/" style="fill-rule:evenodd;clip-rule:evenodd;"><rect id="ArtBoard3" x="0" y="0" width="294.129" height="234.568" style="fill:none;"/><clipPath id="_clip1"><rect x="0" y="0" width="294.129" height="234.568"/></clipPath><g clip-path="url(#_clip1)"><g><path d="M273.192,234.109l-187.81,0c0,0 12.205,-46.963 37.525,-46.963c15.912,0 22.311,16.604 37.089,16.604c14.777,0 33.553,-41.302 57.728,-41.302c37.813,0 55.468,71.661 55.468,71.661" style="fill:#748ffd;"/><g><path d="M240.676,101.563l-0.313,-5.439c-0,-0 0.006,-3.785 0.495,-7.871c0.489,-4.086 3.309,-8.918 0.326,-16.131c-2.983,-7.207 4.148,-2.231 5.727,1.197c1.316,2.858 0.621,8.867 2.238,11.067c1.366,-0.746 2.274,-1.717 2.274,-1.717l15.373,-19.941c0.495,-0.67 1.41,-0.871 2.143,-0.476l0.827,0.451c0.871,0.476 1.147,1.592 0.589,2.407c-3.002,4.405 -12.301,17.327 -12.051,17.459l0.408,0.495l18.054,-19.039c0.564,-0.633 1.51,-0.745 2.206,-0.263l1.084,0.752c0.79,0.545 0.959,1.636 0.37,2.388c-3.591,4.637 -17.064,19.358 -16.807,19.502l0.538,0.52l16.808,-14.846c0.595,-0.664 1.61,-0.739 2.3,-0.182l0.821,0.671c0.72,0.583 0.827,1.642 0.238,2.356l-15.874,14.928l0.458,0.72l13.78,-9.682c0.633,-0.564 1.586,-0.564 2.225,-0.006l0.382,0.345c0.677,0.601 0.752,1.635 0.163,2.331c-2.018,2.387 -8.285,6.386 -13.21,11.318c-3.823,3.829 -5.697,7.457 -11.036,11.756c-2.256,1.824 -4.268,2.776 -6.185,3.785l-14.351,-8.855Zm-123.899,-12.48c-0,-0 10.62,-0.021 18.285,-0.046c7.664,-0.027 17.302,3.214 17.302,3.214c0,-0 5.015,11.328 -12.406,10.302c-17.422,-1.027 -23.181,-13.47 -23.181,-13.47Zm-74.704,85.766c-0.386,-14.269 16.615,-39.926 16.615,-39.926l29.759,13.316l-12.245,26.224l33.67,47.195l-13.861,11.352c0,0 -53.483,-41.338 -53.938,-58.161Z" style="fill:#ff922b;"/><path d="M105.844,201.087l8.28,11.169l-24.938,21.853c-0,0 -45.765,-33.721 -47.178,-60.16c-0.9,-16.84 13.755,-40.879 13.755,-40.879c0,0 18.394,-29.554 39.657,-39.528c4.364,-2.047 14.943,-3.755 21.357,-4.459c1.965,-0.216 0.79,0.554 1.465,1.857c0.705,1.362 2.851,3.379 4.336,4.887c3.09,3.139 9.18,5.516 12.452,6.002c2.493,0.371 7.31,0.946 9.628,0.633c2.318,-0.313 4.838,-1.365 5.511,-1.99c0.673,-0.624 1.675,-1.406 2.195,-2.611c0.52,-1.204 0.493,-0.859 0.493,-1.97c0,-1.111 -0.057,-0.947 -0.165,-1.476c-0.108,-0.528 -0.108,-0.846 -0.172,-1.119c-0.282,-1.21 -0.156,-1.045 -0.156,-1.045c12.552,3.811 18.91,5.221 23.483,10.766l34.945,24.654l23.911,-31.365l30.851,20.824c-0,0 -27.316,51.162 -47.113,56.819c-15.947,4.556 -32.102,-9.614 -37.782,-15.297l6.749,34.441c1.081,5.946 -4.098,8.197 -8.713,7.986l-72.851,0.008Z" style="fill:#f06694;"/><path d="M180.553,158.672l-4.177,-16.593l11.278,22.677l-7.101,-6.084Z" style="fill-opacity:0.2;"/><path d="M102.747,197.087l-19.475,-27.766l23.525,-35.865" style="fill:none;fill-rule:nonzero;stroke:#000;stroke-opacity:0.2;stroke-width:3.13px;"/></g><g><path d="M178.947,28.079c-0,8.985 -5.777,16.267 -12.903,16.267c-7.124,0 -12.901,-7.282 -12.901,-16.267c-0,-8.984 5.777,-16.266 12.901,-16.266c7.126,-0 12.903,7.282 12.903,16.266" style="fill:#c92b2b;"/><path d="M148.415,92.52l-0.54,-18.683c0,-0 22.652,1.808 27.499,-0.715c-0,-0 5.922,-30.583 -1.142,-47.519l-0.143,-0.659l-47.803,-5.604l-2.68,27.492c-1.61,-4.76 -14.9,-10.158 -18.374,-3.341c-7.528,14.77 19.39,24.716 19.39,24.716l-2.734,24.537" style="fill:#ff922b;"/><path d="M147.875,73.837l-15.275,-3.283l15.202,10.292l0.073,-7.009Z" style="fill-opacity:0.4;"/><path d="M160.086,46.483l5.278,12.933l-6.326,0.081l1.048,-13.014Z" style="fill-opacity:0.4;"/><path d="M154.457,46.981c0.315,1.741 -0.84,3.409 -2.577,3.723c-1.738,0.316 -3.402,-0.841 -3.716,-2.583c-0.315,-1.741 0.839,-3.408 2.577,-3.723c1.738,-0.315 3.401,0.841 3.716,2.583" style="fill:#0d7285;"/><path d="M172.194,46.981c0.315,1.741 -0.839,3.409 -2.577,3.723c-1.738,0.316 -3.402,-0.841 -3.716,-2.583c-0.314,-1.741 0.839,-3.408 2.578,-3.723c1.738,-0.315 3.401,0.841 3.715,2.583" style="fill:#0d7285;"/><path d="M134.249,29.799c0.177,-3.807 0.707,-5.121 21.314,0.117c28.809,7.322 39.377,-21.5 28.016,-28.084c-3.149,-1.823 -6.425,-0.762 -10.202,0.462c-4.2,1.36 -9.019,2.921 -14.969,0.938c-16.806,-5.599 -28.288,-1.474 -34.947,1.502c-6.579,2.941 -14.723,13.184 -13.037,24.41c0.629,4.195 1.524,8.139 2.698,11.54c2.943,0.695 9.501,3.066 14.034,10.841c4.607,-2.18 6.522,-9.42 7.093,-21.726Z" style="fill:#c92b2b;"/><path d="M151.298,59.978c-0,-0 2.031,3.699 6.421,3.611l-6.421,-3.611Z" style="fill:#fff;"/><path d="M151.298,59.978c-0,-0 2.031,3.699 6.421,3.611" style="fill:none;fill-rule:nonzero;stroke:#862e9c;stroke-width:2.51px;"/><path d="M158.553,47.136c-0,4.048 -3.276,7.33 -7.316,7.33c-4.04,0 -7.316,-3.282 -7.316,-7.33c0,-4.049 3.276,-7.332 7.316,-7.332c4.04,0 7.316,3.283 7.316,7.332Z" style="fill:none;stroke:#862e9c;stroke-width:2.51px;"/><path d="M176.973,47.136c0,4.048 -3.275,7.33 -7.315,7.33c-4.041,0 -7.316,-3.282 -7.316,-7.33c-0,-4.049 3.275,-7.332 7.316,-7.332c4.04,0 7.315,3.283 7.315,7.332Z" style="fill:none;stroke:#862e9c;stroke-width:2.51px;"/><path d="M161.746,47.475l-3.163,0" style="fill:none;fill-rule:nonzero;stroke:#862e9c;stroke-width:2.51px;"/><path d="M143.921,47.136l-18.071,-0" style="fill:none;fill-rule:nonzero;stroke:#862e9c;stroke-width:2.51px;"/></g><path d="M44.927,234.109l184.743,0c-0,0 -15.165,-31.446 -38.501,-31.446c-13.674,0 -22.891,11.118 -38.053,11.118c-15.162,0 -31.462,-27.902 -57.617,-27.902c-32.564,0 -50.572,48.23 -50.572,48.23" style="fill:#bbc7ff;"/><path d="M14.844,234.109c0,0 9.946,-26.651 47.48,-27.861c37.533,-1.211 55.166,-28.744 86.95,-29.954c31.783,-1.21 43.743,34.379 85.675,32.563c41.931,-1.815 59.18,25.252 59.18,25.252l-279.285,0Z" style="fill:#4c6ef5;"/><path d="M-0,234.109c-0,0 21.45,-49.433 55.677,-49.433c27.761,-0 30.859,34.995 56.307,34.132c25.448,-0.863 38.346,-16.845 61.301,-16.845c28.963,-0 52.883,32.146 52.883,32.146l-226.168,0Z" style="fill:#b197fc;"/></g></g></svg>