<?xml version="1.0" encoding="UTF-8" standalone="no"?><!DOCTYPE svg PUBLIC "-//W3C//DTD SVG 1.1//EN" "http://www.w3.org/Graphics/SVG/1.1/DTD/svg11.dtd"><svg width="100%" height="100%" viewBox="0 0 295 260" version="1.1" xmlns="http://www.w3.org/2000/svg" xmlns:xlink="http://www.w3.org/1999/xlink" xml:space="preserve" xmlns:serif="http://www.serif.com/" style="fill-rule:evenodd;clip-rule:evenodd;"><rect id="ArtBoard3" x="0" y="0" width="294.129" height="259.553" style="fill:none;"/><g><g><path d="M158.872,168.298l60.672,-0c8.321,-0 15.267,-6.354 16.002,-14.643l5.002,-56.193c0.837,-9.398 -6.57,-17.49 -16.005,-17.49l-60.671,0c-8.322,0 -15.266,6.354 -16.004,14.643l-4.999,56.192c-0.836,9.398 6.568,17.491 16.003,17.491" style="fill:#b6d4ff;"/><path d="M110.771,168.298l78.408,-0c8.322,-0 15.266,-6.354 16.004,-14.643l4.999,-56.193c0.836,-9.398 -6.568,-17.49 -16.003,-17.49l-78.408,0c-8.322,0 -15.266,6.354 -16.004,14.643l-4.999,56.192c-0.836,9.398 6.568,17.491 16.003,17.491" style="fill:#dceeff;"/><rect x="96.66" y="157.183" width="122.551" height="52.522" style="fill:#b6d4ff;"/><path d="M27.285,235.223l62.222,0c9.204,0 16.434,-7.88 15.644,-17.051l-5.151,-59.743c-0.7,-8.119 -7.495,-14.353 -15.643,-14.353l-62.223,0c-9.204,0 -16.435,7.881 -15.644,17.05l5.151,59.744c0.7,8.119 7.494,14.353 15.644,14.353" style="fill:#b6d4ff;"/><rect x="33.854" y="207.718" width="172.005" height="27.505" style="fill:#cce3ff;"/><path d="M70.88,207.718l91.612,0c9.477,0 17.159,-7.682 17.159,-17.159c-0,-9.476 -7.682,-17.158 -17.159,-17.158l-91.612,-0c-9.476,-0 -17.158,7.682 -17.158,17.158c-0,9.477 7.682,17.159 17.158,17.159" style="fill:#dceeff;"/><path d="M257.396,257.508l6.511,-0l-2.751,-22.285l-12.011,0l8.251,22.285Z" style="fill:#b6d4ff;"/><path d="M201.463,257.508l6.508,-0l-2.751,-22.285l-12.008,0l8.251,22.285Z" style="fill:#b6d4ff;"/><path d="M34.881,257.508l-6.508,-0l2.751,-22.285l12.008,0l-8.251,22.285Z" style="fill:#b6d4ff;"/><path d="M90.817,257.508l-6.508,-0l2.75,-22.285l12.009,0l-8.251,22.285Z" style="fill:#b6d4ff;"/><path d="M27.285,235.223l9.323,0c9.204,0 16.435,-7.88 15.644,-17.051l-5.151,-59.743c-0.7,-8.119 -7.495,-14.353 -15.644,-14.353l-9.323,0c-9.204,0 -16.435,7.881 -15.644,17.05l5.151,59.744c0.7,8.119 7.494,14.353 15.644,14.353" style="fill:#cce3ff;"/><path d="M196.764,235.223l70.082,0c8.149,0 14.942,-6.234 15.642,-14.353l5.151,-59.744c0.79,-9.169 -6.44,-17.05 -15.642,-17.05l-70.082,0c-8.149,0 -14.943,6.234 -15.643,14.353l-5.151,59.743c-0.791,9.171 6.439,17.051 15.643,17.051" style="fill:#b6d4ff;"/><path d="M196.764,235.223l9.324,0c8.149,0 14.944,-6.234 15.644,-14.353l5.151,-59.744c0.79,-9.169 -6.44,-17.05 -15.644,-17.05l-9.324,0c-8.149,0 -14.943,6.234 -15.643,14.353l-5.151,59.743c-0.791,9.171 6.439,17.051 15.643,17.051" style="fill:#cce3ff;"/></g><g><path d="M83.406,54.937c0,16.151 -13.094,29.245 -29.246,29.245c-16.152,0 -29.245,-13.094 -29.245,-29.245c0,-16.152 13.093,-29.246 29.245,-29.246c16.152,0 29.246,13.094 29.246,29.246" style="fill:#cce3ff;"/><path d="M77.672,54.937c-0,16.151 -13.094,29.245 -29.246,29.245c-16.152,0 -29.245,-13.094 -29.245,-29.245c-0,-16.152 13.093,-29.246 29.245,-29.246c16.152,0 29.246,13.094 29.246,29.246" style="fill:#dceeff;"/><path d="M70.588,54.935c-0,11.416 -8.628,20.813 -19.715,22.031c-0.804,0.089 -1.618,0.133 -2.445,0.133c-12.242,-0 -22.164,-9.922 -22.164,-22.164c-0,-12.238 9.922,-22.16 22.164,-22.16c0.827,-0 1.641,0.044 2.445,0.133c11.087,1.218 19.715,10.615 19.715,22.027" style="fill:#cce3ff;"/><path d="M70.588,54.935c-0,11.416 -8.628,20.813 -19.715,22.031c-11.091,-1.218 -19.719,-10.615 -19.719,-22.031c-0,-11.412 8.628,-20.809 19.719,-22.027c11.087,1.218 19.715,10.615 19.715,22.027" style="fill:#ecf6ff;"/><path d="M49.387,42.613l7.181,15.661" style="fill:none;fill-rule:nonzero;stroke:#cce3ff;stroke-width:3.31px;"/><path d="M57.252,51.708l-15.729,17.098" style="fill:none;fill-rule:nonzero;stroke:#cce3ff;stroke-width:3.31px;"/></g><g><path d="M109.521,117.536c0.285,-2.79 0.396,-6.128 -0.49,-7.323c-1.627,-2.194 -9.67,-8.826 -9.67,-8.826l-0.428,5.534l-1.904,-6.497c-0,-0 -2.109,0.625 -4.149,1.692c-1.822,0.953 -3.549,2.326 -4.304,2.862c-1.081,0.769 2.063,12.596 4.304,14.724c1.538,1.461 6.075,2.594 8.767,3.16c5.142,8.304 18.847,29.053 26.418,27.342c7.866,-1.779 15.163,-29.273 15.163,-29.273l-13.266,-6.463l-5.777,17.804l-14.664,-14.736Zm90.15,60.254l-3.229,8.258c0,0 -0.49,2.126 -0.765,4.639c-0.273,2.513 -0.379,4.041 -2.042,7.811c-1.16,2.627 2.592,1.843 3.657,0.375c1.097,-1.513 1.652,-7.718 3.458,-6.491c1.806,1.229 2.35,7.473 1.946,13.369c-0.063,0.926 0.58,1.683 1.04,1.949c0.746,0.432 1.834,-3.217 1.834,-3.217c0,-0 0.391,1.282 1.579,0.747c0.421,-0.19 1.673,-2.672 1.673,-2.672c0,-0 0.97,-1.224 1.48,-2.59c0.901,-2.412 1.636,-6.889 1.463,-8.204c-0.41,-3.1 -1.331,-8.333 -2.542,-11.232c0.715,-7.448 3.456,-37.352 1.944,-43.033c-1.731,-6.5 -5.121,-15.308 -5.121,-15.308l-13.01,7.652l5.577,11.907l1.058,36.04Zm-44.966,-92.84c0,0 -3.474,2.456 -6.069,6.846c-3.552,6.006 -1.695,11.188 3.769,11.197c5.85,0.01 12.564,-1.981 15.394,-10.842c1.432,-4.481 2.784,-7.967 2.784,-7.967l-15.878,0.766Z" style="fill:#339aef;"/><path d="M92.63,102.284c1.198,-0.687 2.338,-1.201 2.897,-1.07c0.978,0.228 -0.811,2.792 -2.117,4.48l0.015,0.064c2.107,0.848 4.867,2.105 5.311,3.025c0.31,0.642 -0.9,0.852 -2.4,0.881c1.38,0.662 2.584,1.377 2.864,1.958c0.359,0.744 -1.321,0.908 -3.128,0.882c1.596,0.728 3.091,1.556 3.408,2.212c0.403,0.837 -1.773,0.94 -3.808,0.864l0.523,2.286c0.16,0.701 0.799,1.187 1.517,1.156l7.809,-0.342c0.929,-0.04 1.594,-0.913 1.387,-1.82l-5.533,-24.181c-0.161,-0.701 -0.799,-1.188 -1.517,-1.157l-7.809,0.342c-0.929,0.041 -1.594,0.913 -1.387,1.82l1.968,8.6Z" style="fill:#485056;"/><path d="M91.038,103.265c1.657,-1.081 3.681,-2.24 4.489,-2.051c0.986,0.23 -0.843,2.837 -2.151,4.525c2.113,0.847 4.913,2.117 5.36,3.044c0.31,0.642 -0.9,0.852 -2.4,0.881c1.38,0.662 2.584,1.377 2.864,1.958c0.359,0.744 -1.321,0.908 -3.128,0.882c1.596,0.728 3.091,1.556 3.408,2.212c0.534,1.108 -3.455,0.929 -5.65,0.752l0.567,2.476c0.16,0.701 0.798,1.187 1.517,1.156l7.808,-0.341c0.93,-0.041 1.595,-0.914 1.387,-1.821l-5.532,-24.181c-0.161,-0.701 -0.799,-1.187 -1.517,-1.156l-7.809,0.341c-0.929,0.041 -1.594,0.914 -1.387,1.82l2.174,9.503Z" style="fill:#5e93d1;"/><path d="M97.563,94.805c0.182,0.792 0.649,1.355 1.044,1.256c0.394,-0.099 0.567,-0.821 0.385,-1.614c-0.182,-0.792 -0.65,-1.355 -1.044,-1.256c-0.395,0.099 -0.567,0.821 -0.385,1.614" style="fill:#485056;"/><path d="M98.476,98.906c0.182,0.792 0.649,1.355 1.044,1.256c0.395,-0.099 0.567,-0.821 0.385,-1.614c-0.182,-0.792 -0.649,-1.355 -1.044,-1.256c-0.394,0.099 -0.567,0.821 -0.385,1.614" style="fill:#485056;"/><path d="M165.35,84.437l5.233,-0.253c-0,0 -1.352,3.486 -2.784,7.967c-2.83,8.861 -9.544,10.852 -15.394,10.842c-5.464,-0.009 -7.321,-5.191 -3.769,-11.197c2.286,-3.867 5.253,-6.233 5.929,-6.742c-6.9,0.466 -11.197,1.333 -15.175,5.064c-7.575,7.105 -13.709,20.203 -16.232,33.144l13.843,6.177l4.931,19.052l36.228,-0.552c0,0 -0.317,-3.489 0.464,-8.532c1.018,-6.596 4.692,-11.518 4.692,-11.518l3.643,5.539l22.662,-13.359c-7.419,-13.529 -17.767,-27.479 -24.667,-31.918c-4.875,-3.137 -9.338,-3.924 -13.698,-3.967c-1.983,-0.019 -3.974,0.116 -5.906,0.253Z" style="fill:#94d82c;"/><path d="M141.77,148.822c-1.384,-17.575 -10.531,-21.722 -3.629,-41.433" style="fill:none;fill-rule:nonzero;stroke:#000;stroke-opacity:0.2;stroke-width:1.29px;"/><path d="M154.705,84.95c0,0 -3.474,2.456 -6.069,6.846c-3.552,6.006 -1.695,11.188 3.769,11.197c5.85,0.01 12.564,-1.981 15.394,-10.842c1.432,-4.481 2.784,-7.967 2.784,-7.967" style="fill:none;fill-rule:nonzero;stroke:#1871c2;stroke-width:1.29px;"/><path d="M174.011,115.585l8.406,12.737" style="fill:none;fill-rule:nonzero;stroke:#000;stroke-opacity:0.2;stroke-width:1.29px;"/></g><g><path d="M115.002,48.341c0,3.283 0.341,6.488 0.993,9.581c4.412,21.059 23.091,28.246 45.466,28.246c25.653,-0 46.454,-12.169 46.454,-37.827c-0,-25.657 -20.801,-46.454 -46.454,-46.454c-17.639,0 -32.983,9.827 -40.851,24.308c-3.575,6.583 -5.608,14.127 -5.608,22.146" style="fill:#ff922a;"/><path d="M153.494,79.249c0,-0 5.578,0.165 7.956,-1.134l-7.659,4.809l-0.297,-3.675Z" style="fill:#1764ab;"/><path d="M155.359,43.986c0.461,0.946 0.949,2.002 1.459,3.107c2.842,6.149 6.385,13.817 9.871,12.46c0,0 -0.637,-5.355 3.834,-5.349c3.33,0.005 4.232,2.677 4.23,4.22c-0.005,3.19 -2.368,4.882 -4.739,6.581c-1.502,1.075 -3.006,2.152 -3.918,3.613c-1.752,2.798 1.521,18.024 1.521,18.024l-13.111,5.135l-1.012,-12.528c-4.41,0.254 -9.588,0.021 -12.431,-1.869c-6.019,-4.004 -8.014,-15.026 -8.615,-21.421c9.438,-2.954 17.479,-7.299 22.911,-11.973Z" style="fill:#339aef;"/><path d="M141.369,59.544l-3.192,7.738l3.703,-0.074l-0.511,-7.664Z" style="fill:#1871c2;"/><path d="M144.768,59.879c0.08,1.546 0.989,2.751 2.031,2.691c1.042,-0.06 1.822,-1.362 1.743,-2.908c-0.08,-1.546 -0.989,-2.751 -2.031,-2.691c-1.042,0.06 -1.823,1.362 -1.743,2.908" style="fill:#485056;"/><path d="M134.982,59.632c0.079,1.546 0.988,2.75 2.03,2.69c1.043,-0.06 1.823,-1.361 1.743,-2.907c-0.08,-1.546 -0.989,-2.751 -2.031,-2.691c-1.042,0.06 -1.822,1.362 -1.742,2.908" style="fill:#485056;"/><path d="M142.789,70.915c0,-0 2.413,0.778 4.831,-1.91" style="fill:none;fill-rule:nonzero;stroke:#485056;stroke-width:1.29px;"/><path d="M153.504,79.249c-0,-0 5.578,0.165 7.955,-1.134l-7.659,4.809l-0.296,-3.675Z" style="fill:#1871c2;"/></g><g><path d="M110.047,238.848l0.9,7.851c-0,-0 -16.736,4.387 -23.028,10.913l31.199,0.054l-1.168,-22.487l-7.903,3.669Zm-35.91,-36.495l-3.593,7.072c-0,0 -16.442,-5.591 -25.322,-3.61l25.8,17.123l11.763,-19.282l-8.648,-1.303Z" style="fill:#485056;"/><path d="M118.328,237.154l-8.289,3.295l0.07,6.518l8.474,-0.311l-0.255,-9.502Zm-36.336,-31.967l-8.765,-1.831l-3.549,5.497l7.267,4.43l5.047,-8.096Z" style="fill:#1871c2;"/><path d="M120.153,126.869l57.926,17.113l1.179,10.996c0.751,10.8 -9.715,20.093 -20.536,20.093l0,-0l-37.931,-0.261l0.882,67.616l-19.872,0l-4.29,-46.57l-12.585,18.357l-16.862,-11.269l30.696,-62.92c6.952,-12.376 10.67,-15.579 21.393,-13.155Z" style="fill:#fe6b6b;"/><path d="M115.314,147.986l43.408,27.085l-37.93,-0.261l0.882,67.616l-19.872,0l-6.813,-73.949c-1.681,-13.455 6.74,-20.491 20.325,-20.491" style="fill:#18181c;fill-opacity:0.15;"/></g></g></svg>