<?xml version="1.0" encoding="UTF-8" standalone="no"?><!DOCTYPE svg PUBLIC "-//W3C//DTD SVG 1.1//EN" "http://www.w3.org/Graphics/SVG/1.1/DTD/svg11.dtd"><svg width="100%" height="100%" viewBox="0 0 295 235" version="1.1" xmlns="http://www.w3.org/2000/svg" xmlns:xlink="http://www.w3.org/1999/xlink" xml:space="preserve" xmlns:serif="http://www.serif.com/" style="fill-rule:evenodd;clip-rule:evenodd;"><rect id="ArtBoard5" x="-0" y="0" width="294.129" height="234.568" style="fill:none;"/><clipPath id="_clip1"><rect x="-0" y="0" width="294.129" height="234.568"/></clipPath><g clip-path="url(#_clip1)"><g><path d="M52.116,152.546c8.241,13.286 29.805,45.834 41.745,43.134c12.465,-2.817 24.029,-46.389 24.029,-46.389l-21.024,-10.241l-9.154,28.214l-22.988,-23.101l0.147,-2.556c-0,-0 -0.005,-3.035 -0.397,-6.311c-0.392,-3.275 -2.653,-7.149 -0.261,-12.932c2.391,-5.777 -3.326,-1.788 -4.592,0.96c-1.055,2.291 -0.498,7.109 -1.794,8.873c-1.095,-0.598 -1.824,-1.377 -1.824,-1.377l-12.324,-15.987c-0.397,-0.537 -1.13,-0.698 -1.718,-0.382l-0.663,0.362c-0.699,0.382 -0.92,1.276 -0.472,1.929c2.406,3.532 9.862,13.892 9.661,13.998l-0.327,0.396l-14.474,-15.263c-0.452,-0.507 -1.211,-0.598 -1.769,-0.211l-0.869,0.603c-0.633,0.437 -0.768,1.311 -0.296,1.914c2.879,3.718 13.68,15.52 13.474,15.635l-0.432,0.417l-13.474,-11.902c-0.478,-0.532 -1.291,-0.593 -1.844,-0.145l-0.658,0.537c-0.578,0.467 -0.663,1.316 -0.191,1.889l12.726,11.968l-0.367,0.577l-11.048,-7.762c-0.507,-0.452 -1.271,-0.452 -1.783,-0.005l-0.307,0.276c-0.542,0.483 -0.603,1.312 -0.131,1.869c1.618,1.915 6.642,5.12 10.591,9.074c3.065,3.07 4.567,5.979 8.848,9.425c1.421,1.149 2.722,1.867 3.96,2.514Zm155.221,86.852l-5.117,13.087c-0,-0 -0.777,3.369 -1.212,7.351c-0.434,3.982 -0.6,6.404 -3.237,12.379c-1.838,4.163 4.109,2.919 5.795,0.594c1.739,-2.399 2.618,-12.232 5.48,-10.286c2.863,1.946 3.725,11.842 3.085,21.186c-0.1,1.467 0.919,2.666 1.647,3.088c1.182,0.685 2.907,-5.099 2.907,-5.099c0,0 0.621,2.033 2.503,1.184c0.666,-0.3 2.651,-4.235 2.651,-4.235c0,0 1.537,-1.939 2.346,-4.104c1.427,-3.822 2.592,-10.916 2.317,-13.001c-0.649,-4.913 -2.108,-13.205 -4.028,-17.798c1.133,-11.804 5.477,-59.195 3.081,-68.197c-2.742,-10.3 -8.116,-24.259 -8.116,-24.259l-20.617,12.126l8.839,18.869l1.676,57.115Zm-71.259,-147.126c0,-0 -5.506,3.891 -9.618,10.848c-5.628,9.519 -2.686,17.731 5.973,17.744c9.27,0.016 19.91,-3.139 24.395,-17.18c2.269,-7.103 4.412,-12.627 4.412,-12.627l-25.162,1.215Z" style="fill:#ff922b;"/><path d="M152.947,91.458l8.293,-0.401c0,0 -2.143,5.524 -4.412,12.627c-4.485,14.041 -15.125,17.196 -24.395,17.18c-8.659,-0.013 -11.601,-8.225 -5.973,-17.744c3.622,-6.128 8.325,-9.877 9.395,-10.684c-10.934,0.739 -17.743,2.112 -24.047,8.026c-12.005,11.259 -21.726,32.016 -25.723,52.523l21.938,9.79l7.813,30.192l57.412,-0.875c0,0 -0.502,-5.53 0.736,-13.521c1.612,-10.453 7.434,-18.252 7.434,-18.252l5.774,8.777l35.913,-21.171c-11.757,-21.44 -28.157,-43.546 -39.091,-50.581c-7.724,-4.971 -14.797,-6.219 -21.708,-6.287c-3.142,-0.03 -6.298,0.183 -9.359,0.401Z" style="fill:#5e93d1;"/><path d="M115.58,193.492c-2.193,-27.852 -16.689,-34.425 -5.751,-65.661" style="fill:none;fill-rule:nonzero;stroke:#000;stroke-opacity:0.2;stroke-width:2.05px;"/><path d="M136.078,92.272c0,-0 -5.506,3.891 -9.618,10.848c-5.628,9.519 -2.686,17.731 5.973,17.744c9.27,0.016 19.91,-3.139 24.395,-17.18c2.269,-7.103 4.412,-12.627 4.412,-12.627" style="fill:none;fill-rule:nonzero;stroke:#000;stroke-opacity:0.2;stroke-width:2.05px;"/><path d="M166.673,140.82l13.321,20.183" style="fill:none;fill-rule:nonzero;stroke:#000;stroke-opacity:0.2;stroke-width:2.05px;"/></g><g><path d="M273.192,234.109l-187.81,0c0,0 12.205,-46.963 37.525,-46.963c15.912,0 22.311,16.604 37.089,16.604c14.777,0 33.553,-41.302 57.728,-41.302c37.813,0 55.468,71.661 55.468,71.661" style="fill:#748ffd;"/><path d="M44.927,234.109l184.743,0c-0,0 -15.165,-31.446 -38.501,-31.446c-13.674,0 -22.891,11.118 -38.053,11.118c-15.162,0 -31.462,-27.902 -57.617,-27.902c-32.564,0 -50.572,48.23 -50.572,48.23" style="fill:#bbc7ff;"/><path d="M14.844,234.109c0,0 9.946,-26.651 47.48,-27.861c37.533,-1.211 55.166,-28.744 86.95,-29.954c31.783,-1.21 43.743,34.379 85.675,32.563c41.931,-1.815 59.18,25.252 59.18,25.252l-279.285,0Z" style="fill:#4c6ef5;"/><path d="M-0,234.109c-0,0 21.45,-49.433 55.677,-49.433c27.761,-0 30.859,34.995 56.307,34.132c25.448,-0.863 38.346,-16.845 61.301,-16.845c28.963,-0 52.883,32.146 52.883,32.146l-226.168,0Z" style="fill:#b197fc;"/></g><g><path d="M202.834,68.177c-0,6.658 -17.451,24.425 -75.502,26.048c-38.65,1.081 -47.465,-1.137 -49.294,-7.235c-2.298,-7.657 10.573,-85.452 60.76,-86.976c36.176,-1.098 64.036,60.73 64.036,68.163" style="fill:#c92b2b;"/><path d="M135.257,81.964c0,0 7.64,0.226 10.896,-1.553l-10.49,6.586l-0.406,-5.033Z" style="fill:#cf3e83;"/><path d="M118.232,79.405c3.894,2.588 10.983,2.907 17.027,2.558l1.382,17.158l19.131,-6.34c-0,0 -1.897,-20.105 -2.718,-27.378c3.964,-3.598 11.308,-5.855 11.32,-11.964c0,-2.109 -1.234,-5.772 -5.796,-5.778c-6.12,-0.006 -5.252,7.326 -5.252,7.326c-6.919,2.694 -14.003,-20.572 -18.085,-25.848c-2.233,-2.877 -19.379,3.575 -19.379,3.575l-9.73,10.882c-0.189,1.335 0.496,28.093 12.1,35.809" style="fill:#ff922b;"/><path d="M118.65,54.976l-4.372,10.599l5.073,-0.102l-0.701,-10.497Z" style="fill:#99581a;"/><path d="M123.305,55.435c0.109,2.117 1.354,3.767 2.781,3.685c1.428,-0.082 2.497,-1.865 2.387,-3.983c-0.108,-2.117 -1.354,-3.767 -2.781,-3.685c-1.428,0.082 -2.496,1.865 -2.387,3.983" style="fill:#0d7285;"/><path d="M109.901,55.097c0.109,2.117 1.355,3.767 2.782,3.685c1.427,-0.082 2.496,-1.865 2.387,-3.983c-0.109,-2.117 -1.354,-3.767 -2.781,-3.685c-1.428,0.082 -2.497,1.865 -2.388,3.983" style="fill:#0d7285;"/><path d="M120.595,70.55c-0,-0 3.305,1.067 6.616,-2.616" style="fill:#0d7285;fill-rule:nonzero;stroke:#862e9c;stroke-width:1.77px;"/><path d="M135.27,81.964c-0,0 7.64,0.226 10.896,-1.553l-10.49,6.586l-0.406,-5.033Z" style="fill-opacity:0.4;"/><path d="M144.602,27.671c0,-0 -37.791,15.27 -41.79,35.631c-4,20.36 0.832,-40.463 0.832,-40.463l40.958,4.832Z" style="fill:#c92b2b;"/></g></g></svg>